<svg width="24" height="25" viewBox="0 0 24 25" fill="none" xmlns="http://www.w3.org/2000/svg">
<path fill-rule="evenodd" clip-rule="evenodd" d="M19.0001 5.71827V8.97727C19.394 8.97727 19.7841 9.05487 20.1481 9.20563C20.5121 9.3564 20.8428 9.57738 21.1214 9.85595C21.3999 10.1345 21.6209 10.4652 21.7717 10.8292C21.9225 11.1932 22.0001 11.5833 22.0001 11.9773C22.0001 12.3712 21.9225 12.7613 21.7717 13.1253C21.6209 13.4893 21.3999 13.82 21.1214 14.0986C20.8428 14.3772 20.5121 14.5981 20.1481 14.7489C19.7841 14.8997 19.394 14.9773 19.0001 14.9773V17.9773C19.0001 19.6253 17.1191 20.5663 15.8001 19.5773L13.7401 18.0313C12.6389 17.2057 11.3568 16.6545 10.0001 16.4233V19.2673C10.0002 19.921 9.76395 20.5528 9.33495 21.0461C8.90596 21.5394 8.3131 21.861 7.66567 21.9516C7.01824 22.0422 6.35987 21.8957 5.81193 21.5391C5.26399 21.1826 4.86342 20.6399 4.68405 20.0113L3.11405 14.5153C2.54907 13.8481 2.18139 13.0365 2.05234 12.1718C1.92329 11.3071 2.03799 10.4235 2.38354 9.62041C2.72909 8.81731 3.29179 8.12651 4.0084 7.62567C4.72501 7.12482 5.56711 6.83379 6.44005 6.78527L9.45805 6.61727C10.9347 6.53525 12.3708 6.10375 13.6481 5.35827L15.9921 3.99027C17.3261 3.21327 19.0001 4.17427 19.0001 5.71827ZM5.63405 16.0553L6.60705 19.4623C6.65388 19.6272 6.75879 19.7696 6.90243 19.8632C7.04606 19.9568 7.2187 19.9953 7.38848 19.9715C7.55826 19.9477 7.71371 19.8633 7.82612 19.7339C7.93853 19.6044 8.00031 19.4387 8.00005 19.2673V16.2573L6.44005 16.1703C6.16871 16.1539 5.89915 16.1155 5.63405 16.0553ZM17.0001 5.71827L14.6551 7.08727C13.231 7.91899 11.6421 8.42892 10.0001 8.58127V14.4003C11.7871 14.6463 13.4881 15.3433 14.9401 16.4313L17.0001 17.9773V5.71827ZM8.00005 8.70127L6.55005 8.78127C5.8755 8.81852 5.23942 9.10729 4.76737 9.59059C4.29532 10.0739 4.0216 10.7166 4.00026 11.3918C3.97891 12.0671 4.21148 12.7258 4.65205 13.238C5.09263 13.7501 5.7092 14.0785 6.38005 14.1583L6.55005 14.1733L8.00005 14.2533V8.70127ZM19.0001 10.9773V12.9773C19.2549 12.977 19.5001 12.8794 19.6854 12.7044C19.8708 12.5295 19.9823 12.2903 19.9972 12.0359C20.0122 11.7814 19.9294 11.5309 19.7658 11.3354C19.6022 11.14 19.3701 11.0144 19.1171 10.9843L19.0001 10.9773Z" fill="white" fill-opacity="1"/>
</svg>
