<svg width="24" height="25" viewBox="0 0 24 25" fill="none" xmlns="http://www.w3.org/2000/svg">
<path d="M11.9999 21.9773C13.9629 21.9769 15.8718 21.3347 17.4359 20.1486C19 18.9626 20.1335 17.2977 20.6636 15.4077C21.1936 13.5177 21.0913 11.5062 20.3721 9.67979C19.6529 7.85335 18.3563 6.31213 16.6799 5.29098C15.0035 4.26984 13.0392 3.82477 11.0863 4.02359C9.13348 4.22242 7.29919 5.05424 5.86298 6.3923C4.42676 7.73036 3.46739 9.50127 3.13104 11.4352C2.7947 13.3691 3.09983 15.3599 3.99994 17.1043L2.99994 21.9773L7.87294 20.9773C9.10894 21.6163 10.5129 21.9773 11.9999 21.9773Z" stroke="white" stroke-opacity="1" stroke-width="1.5" stroke-linecap="round" stroke-linejoin="round"/>
<path d="M7.5 12.9773H7.51V12.9873H7.5V12.9773ZM12 12.9773H12.01V12.9873H12V12.9773ZM16.5 12.9773H16.51V12.9873H16.5V12.9773Z" stroke="white" stroke-opacity="1" stroke-width="2.25" stroke-linejoin="round"/>
</svg>
