<svg width="24" height="25" viewBox="0 0 24 25" fill="none" xmlns="http://www.w3.org/2000/svg">
<path d="M19.318 14.4773H15.443C14.9293 14.4768 14.4364 14.68 14.0724 15.0423C13.7083 15.4047 13.5029 15.8966 13.501 16.4103V20.2853C13.5007 20.5404 13.5508 20.793 13.6483 21.0288C13.7458 21.2645 13.8888 21.4787 14.0692 21.6591C14.2496 21.8395 14.4638 21.9825 14.6995 22.08C14.9353 22.1775 15.1879 22.2276 15.443 22.2273H19.318C19.8315 22.2252 20.3232 22.0196 20.6853 21.6556C21.0475 21.2915 21.2505 20.7988 21.25 20.2853V16.4103C21.2503 16.1565 21.2005 15.9052 21.1035 15.6706C21.0065 15.4361 20.8642 15.223 20.6847 15.0436C20.5053 14.8641 20.2922 14.7218 20.0577 14.6248C19.8231 14.5278 19.5718 14.478 19.318 14.4783M8.557 14.4773H4.682C4.16859 14.4802 3.67721 14.6862 3.3152 15.0503C2.95319 15.4143 2.74999 15.9069 2.75 16.4203V20.2953C2.74974 20.5491 2.79953 20.8004 2.89653 21.035C2.99353 21.2695 3.13583 21.4826 3.31528 21.662C3.49474 21.8415 3.70783 21.9838 3.94235 22.0808C4.17687 22.1778 4.42821 22.2276 4.682 22.2273H8.557C9.07048 22.2278 9.56324 22.0248 9.92726 21.6626C10.2913 21.3005 10.4969 20.8088 10.499 20.2953V16.4203C10.4993 16.1652 10.4492 15.9125 10.3517 15.6768C10.2542 15.4411 10.1112 15.2269 9.93079 15.0465C9.75041 14.8661 9.53622 14.7231 9.30048 14.6256C9.06475 14.5281 8.8121 14.478 8.557 14.4783M8.557 3.7273H4.682C4.42821 3.72703 4.17687 3.77683 3.94235 3.87382C3.70783 3.97082 3.49474 4.11312 3.31528 4.29258C3.13583 4.47203 2.99353 4.68512 2.89653 4.91964C2.79953 5.15416 2.74974 5.40551 2.75 5.6593V9.5343C2.74947 10.0478 2.95253 10.5405 3.31468 10.9046C3.67683 11.2686 4.16852 11.4742 4.682 11.4763H8.557C8.8121 11.4766 9.06475 11.4265 9.30048 11.329C9.53622 11.2315 9.75041 11.0885 9.93079 10.9081C10.1112 10.7277 10.2542 10.5135 10.3517 10.2778C10.4492 10.042 10.4993 9.7894 10.499 9.5343V5.6593C10.4969 5.14582 10.2913 4.65412 9.92726 4.29197C9.56324 3.92982 9.07048 3.72676 8.557 3.7273ZM19.318 3.7273H15.443C14.9295 3.72676 14.4368 3.92982 14.0727 4.29197C13.7087 4.65412 13.5031 5.14582 13.501 5.6593V9.5343C13.5013 10.0493 13.706 10.5431 14.0701 10.9072C14.4342 11.2713 14.928 11.476 15.443 11.4763H19.318C19.8315 11.4742 20.3232 11.2686 20.6853 10.9046C21.0475 10.5405 21.2505 10.0478 21.25 9.5343V5.6593C21.2503 5.40551 21.2005 5.15416 21.1035 4.91964C21.0065 4.68512 20.8642 4.47203 20.6847 4.29258C20.5053 4.11312 20.2922 3.97082 20.0577 3.87382C19.8231 3.77683 19.5718 3.72703 19.318 3.7273Z" stroke="white" stroke-opacity="1" stroke-width="1.5" stroke-linecap="round" stroke-linejoin="round"/>
</svg>
