<svg width="52" height="31" viewBox="0 0 52 31" fill="none" xmlns="http://www.w3.org/2000/svg">
<path d="M50.8091 4.5231L38.465 28.5932C37.934 29.6299 36.867 30.2818 35.702 30.2818H3.31806C0.941056 30.2818 -0.554946 27.7204 0.613054 25.65L14.1911 1.5799C14.7411 0.603801 15.7751 0 16.8961 0H48.0451C50.3681 0 51.8691 2.4563 50.8091 4.5231Z" fill="url(#paint0_linear_57_1890)"/>
<path d="M17.146 22.0576C15.988 22.0576 14.9451 21.8221 14.0171 21.351C13.1021 20.8665 12.3751 20.1263 11.8361 19.1304C11.2981 18.1344 11.0291 16.8761 11.0291 15.3552C11.0291 14.615 11.1571 13.8546 11.4121 13.074C11.6681 12.2934 12.0381 11.5397 12.5231 10.813C13.0211 10.0727 13.6331 9.41329 14.3601 8.83459C15.1001 8.24239 15.955 7.77809 16.924 7.44159C17.893 7.09169 18.9691 6.91669 20.1541 6.91669C20.8811 6.91669 21.5331 7.01759 22.1121 7.21949C22.7041 7.42139 23.1691 7.72419 23.5051 8.12799C23.8411 8.51829 24.01 9.00949 24.01 9.60169C24.01 10.1804 23.8751 10.6649 23.6061 11.0552C23.3501 11.4455 23.0071 11.7416 22.5761 11.9435C22.1591 12.1319 21.702 12.2261 21.204 12.2261C20.611 12.2261 20.033 12.0781 19.467 11.782C18.902 11.4859 18.4451 11.0485 18.0951 10.4698C17.6241 10.6986 17.179 11.0889 16.762 11.6407C16.359 12.179 16.0361 12.8116 15.7931 13.5383C15.5511 14.2651 15.4301 15.0188 15.4301 15.7994C15.4301 16.3512 15.4971 16.8693 15.6321 17.3538C15.7801 17.8249 16.0021 18.2085 16.2981 18.5045C16.5941 18.8006 16.971 18.9487 17.428 18.9487C17.805 18.9487 18.1691 18.8074 18.5191 18.5247C18.8691 18.2286 19.158 17.8383 19.387 17.3538C19.615 16.8693 19.73 16.3243 19.73 15.7186C20.551 15.7186 21.2371 15.759 21.7891 15.8397C22.3541 15.907 22.785 16.0618 23.081 16.3041C23.377 16.5463 23.525 16.9232 23.525 17.4346C23.525 17.946 23.377 18.4709 23.081 19.0092C22.785 19.5476 22.3541 20.0523 21.7891 20.5233C21.2371 20.9809 20.5641 21.351 19.7701 21.6337C18.9901 21.9163 18.115 22.0576 17.146 22.0576ZM26.5051 22.0576C25.7381 22.0576 25.193 21.8625 24.87 21.4722C24.561 21.0819 24.4061 20.6445 24.4061 20.16C24.4061 19.3659 24.796 18.4844 25.577 17.5153C26.357 16.5329 27.5751 15.436 29.2311 14.2247L27.4341 10.8332C27.1781 10.3486 26.8621 9.87089 26.4851 9.39979C26.1081 8.91529 25.604 8.56539 24.971 8.34999C25.482 7.82519 26.0341 7.45509 26.6261 7.23969C27.2191 7.02439 27.75 6.91669 28.221 6.91669C28.84 6.91669 29.3591 7.01759 29.7761 7.21949C30.1931 7.42139 30.59 7.77809 30.967 8.28949C31.357 8.80089 31.7951 9.52089 32.2791 10.4496L33.107 12.0242C33.537 11.5397 33.8811 11.0552 34.1361 10.5707C34.3921 10.0727 34.5201 9.57479 34.5201 9.07679C34.5201 8.84799 34.5001 8.64609 34.4591 8.47119C34.4321 8.28279 34.385 8.11449 34.318 7.96649C35.354 7.26659 36.3571 6.91669 37.3261 6.91669C38.0801 6.91669 38.618 7.11189 38.941 7.50219C39.264 7.89249 39.426 8.32989 39.426 8.81439C39.426 9.63529 39.042 10.5438 38.275 11.5397C37.521 12.5222 36.3031 13.6325 34.6211 14.8707L36.3771 18.1412C36.6331 18.6257 36.9491 19.1102 37.3261 19.5947C37.7031 20.0657 38.208 20.4089 38.84 20.6243C38.342 21.1492 37.7901 21.5193 37.1851 21.7346C36.5921 21.9499 36.061 22.0576 35.59 22.0576C34.984 22.0576 34.4661 21.9567 34.0351 21.7548C33.6181 21.5529 33.221 21.1963 32.844 20.6848C32.467 20.16 32.0301 19.4399 31.5321 18.5247L30.6841 16.9501C30.2671 17.448 29.9301 17.946 29.6751 18.444C29.4331 18.9285 29.3111 19.413 29.3111 19.8975C29.3111 20.3282 29.372 20.6983 29.493 21.0078C28.47 21.7077 27.4741 22.0576 26.5051 22.0576Z" fill="white" fill-opacity="0.95"/>
<defs>
<linearGradient id="paint0_linear_57_1890" x1="-1.99995" y1="15.1409" x2="53.1281" y2="15.1409" gradientUnits="userSpaceOnUse">
<stop stop-color="#A420EB"/>
<stop offset="0.56117" stop-color="#7918F2"/>
<stop offset="1" stop-color="#4801FF"/>
</linearGradient>
</defs>
</svg>
