<svg width="24" height="25" viewBox="0 0 24 25" fill="none" xmlns="http://www.w3.org/2000/svg">
<path d="M12 19.7273C11.59 19.7273 11.25 19.3873 11.25 18.9773V15.9773C11.25 15.5673 11.59 15.2273 12 15.2273C12.41 15.2273 12.75 15.5673 12.75 15.9773V18.9773C12.75 19.3873 12.41 19.7273 12 19.7273Z" fill="white" fill-opacity="1"/>
<path d="M12 19.7273C11.59 19.7273 11.25 19.3873 11.25 18.9773V15.9773C11.25 15.5673 11.59 15.2273 12 15.2273C12.41 15.2273 12.75 15.5673 12.75 15.9773V18.9773C12.75 19.3873 12.41 19.7273 12 19.7273Z" fill="white" fill-opacity="1"/>
<path d="M17.6 23.5373H6.39996C4.57996 23.5373 2.91996 22.1373 2.61996 20.3473L1.28996 12.3773C1.06996 11.1373 1.67996 9.5473 2.66996 8.7573L9.59996 3.2073C10.94 2.1273 13.05 2.1373 14.4 3.2173L21.33 8.7573C22.31 9.5473 22.91 11.1373 22.71 12.3773L21.38 20.3373C21.08 22.1073 19.38 23.5373 17.6 23.5373V23.5373ZM11.99 3.9073C11.46 3.9073 10.93 4.0673 10.54 4.3773L3.60996 9.9373C3.04996 10.3873 2.64996 11.4273 2.76996 12.1373L4.09996 20.0973C4.27996 21.1473 5.32996 22.0373 6.39996 22.0373H17.6C18.67 22.0373 19.72 21.1473 19.9 20.0873L21.23 12.1273C21.34 11.4273 20.94 10.3673 20.39 9.9273L13.46 4.3873C13.06 4.0673 12.52 3.9073 11.99 3.9073V3.9073Z" fill="white" fill-opacity="1"/>
</svg>
