<svg width="25" height="24" viewBox="0 0 25 24" fill="none" xmlns="http://www.w3.org/2000/svg">
<path d="M3.90906 10.234L4.65606 10.17C4.63884 9.97794 4.54829 9.79987 4.40322 9.6728C4.25815 9.54573 4.0697 9.47942 3.87702 9.48766C3.68434 9.4959 3.50224 9.57804 3.36854 9.71703C3.23484 9.85602 3.15982 10.0412 3.15906 10.234H3.90906ZM21.1451 12.057L20.4391 16.137L21.9181 16.393L22.6231 12.313L21.1451 12.057ZM14.1541 21.25H9.50506V22.75H14.1541V21.25ZM8.59406 20.413L7.78206 11.02L6.28706 11.149L7.10006 20.542L8.59406 20.413ZM20.4391 16.137C19.9321 19.067 17.2901 21.25 14.1541 21.25V22.75C17.9801 22.75 21.2801 20.081 21.9181 16.393L20.4391 16.137ZM14.1641 5.10003L13.5011 9.14503L14.9811 9.38703L15.6441 5.34303L14.1641 5.10003ZM8.09706 10.246L9.53606 9.00603L8.55606 7.87003L7.11906 9.11003L8.09706 10.246ZM12.1531 4.97203L12.6291 3.13803L11.1771 2.76203L10.7011 4.59503L12.1531 4.97203ZM13.3471 2.77803L13.4921 2.82503L13.9511 1.39703L13.8061 1.35003L13.3471 2.77803ZM11.4321 6.81603C11.7442 6.23193 11.9863 5.61297 12.1531 4.97203L10.7011 4.59503C10.5633 5.12131 10.3646 5.62975 10.1091 6.11003L11.4321 6.81603ZM13.4921 2.82503C13.6345 2.86868 13.7637 2.94741 13.8679 3.05399C13.972 3.16057 14.0477 3.29159 14.0881 3.43503L15.5401 3.05903C15.4372 2.67033 15.2375 2.31403 14.9596 2.0234C14.6817 1.73277 14.3347 1.51727 13.9511 1.39703L13.4921 2.82503ZM12.6291 3.13803C12.6493 3.06614 12.6848 2.99946 12.7331 2.94251C12.7814 2.88557 12.8414 2.8397 12.9091 2.80803L12.2581 1.45703C11.7261 1.71303 11.3261 2.18703 11.1771 2.76203L12.6291 3.13803ZM12.9091 2.80803C13.046 2.74305 13.2025 2.73233 13.3471 2.77803L13.8061 1.35003C13.2953 1.18676 12.7415 1.22504 12.2581 1.45703L12.9091 2.80803ZM15.0631 10.984H20.2431V9.48403H15.0631V10.984ZM5.62806 21.406L4.65606 10.17L3.16206 10.299L4.13206 21.535L5.62806 21.406ZM4.65906 21.513V10.234H3.15906V21.513H4.65906ZM4.13206 21.535C4.12901 21.4987 4.13455 21.4621 4.14639 21.4276C4.15824 21.3931 4.17712 21.3615 4.20186 21.3347C4.22659 21.3079 4.25663 21.2865 4.29006 21.2719C4.32349 21.2574 4.35959 21.2499 4.39606 21.25V22.75C5.12206 22.75 5.69006 22.128 5.62806 21.406L4.13206 21.535ZM15.6441 5.34303C15.7698 4.58281 15.7343 3.80467 15.5401 3.05903L14.0881 3.43603C14.2299 3.97921 14.2558 4.54617 14.1641 5.10003L15.6441 5.34303ZM9.50506 21.25C9.27607 21.2496 9.05553 21.1635 8.88691 21.0086C8.71829 20.8536 8.61381 20.6412 8.59406 20.413L7.10006 20.542C7.15209 21.1442 7.42794 21.705 7.87316 22.1137C8.31839 22.5225 8.90065 22.7495 9.50506 22.75V21.25ZM9.53606 9.00603C10.2161 8.42003 10.9481 7.72303 11.4331 6.81603L10.1091 6.11003C9.76306 6.75903 9.21206 7.30603 8.55606 7.87003L9.53606 9.00603ZM22.6231 12.313C22.6833 11.966 22.6669 11.61 22.575 11.27C22.4832 10.93 22.3181 10.6142 22.0914 10.3447C21.8647 10.0752 21.5817 9.85849 21.2625 9.70982C20.9432 9.56116 20.5953 9.48409 20.2431 9.48403V10.984C20.8101 10.984 21.2431 11.496 21.1451 12.057L22.6231 12.313ZM4.39606 21.25C4.54206 21.25 4.65906 21.368 4.65906 21.513H3.15906C3.15906 22.195 3.71206 22.75 4.39606 22.75V21.25ZM13.5011 9.14503C13.4638 9.37161 13.4762 9.60358 13.5376 9.82487C13.5989 10.0461 13.7077 10.2514 13.8563 10.4265C14.0049 10.6015 14.1898 10.7422 14.3982 10.8386C14.6066 10.9351 14.8334 10.984 15.0631 10.984V9.48403C15.0509 9.48408 15.0388 9.48244 15.0277 9.4773C15.0167 9.47216 15.0069 9.46465 14.999 9.45529C14.9912 9.44593 14.9855 9.43496 14.9824 9.42316C14.9793 9.41137 14.9789 9.39903 14.9811 9.38703L13.5011 9.14503ZM7.78206 11.02C7.76986 10.8752 7.79114 10.7296 7.84606 10.5951C7.90099 10.4605 7.987 10.3409 8.09706 10.246L7.11706 9.10903C6.8272 9.35916 6.60083 9.6745 6.45654 10.0291C6.31226 10.3838 6.25417 10.7676 6.28706 11.149L7.78206 11.02Z" fill="white"/>
</svg>
