<svg width="41" height="14" viewBox="0 0 41 14" fill="none" xmlns="http://www.w3.org/2000/svg">
<path fill-rule="evenodd" clip-rule="evenodd" d="M19.1607 9.66114C18.6056 10.8381 17.7844 12.1536 16.4563 12.6509C15.5119 13.0046 14.672 13.1739 13.8685 13.1271C13.0495 13.0795 12.3706 12.8133 11.7498 12.4592C11.2661 12.1833 10.77 11.8234 10.2761 11.465C10.1741 11.391 10.0722 11.317 9.97045 11.2439C9.35056 10.7981 8.64765 10.3125 7.75323 9.8163C7.12029 9.46517 6.54811 9.45903 5.98581 9.64383C5.37928 9.84317 4.76007 10.2781 4.17423 10.8483C3.59711 11.41 3.11338 12.0429 2.76964 12.5463C2.59948 12.7955 2.46763 13.007 2.37966 13.1538C2.33576 13.2271 2.30302 13.2838 2.28214 13.3206L2.25986 13.3603L2.25602 13.3673C1.94085 13.9499 1.21277 14.1676 0.629868 13.8527C0.0467732 13.5377 -0.170558 12.8096 0.144444 12.2265L1.20023 12.7969C0.144444 12.2265 0.144245 12.2269 0.144444 12.2265L0.146456 12.2228L0.149705 12.2169L0.159884 12.1984C0.168295 12.1832 0.179951 12.1623 0.194766 12.1362C0.224384 12.084 0.266704 12.0108 0.321044 11.9201C0.429566 11.739 0.586914 11.4869 0.787651 11.1929C1.18569 10.61 1.77048 9.8387 2.5003 9.12838C3.22139 8.42655 4.14754 7.72169 5.23648 7.36381C6.36965 6.99139 7.64305 7.01059 8.91751 7.71762C9.93047 8.27958 10.7199 8.82674 11.3716 9.29534C11.4966 9.38525 11.6139 9.47017 11.7248 9.55046C12.2145 9.90515 12.5796 10.1695 12.9389 10.3745C13.3424 10.6046 13.6614 10.711 14.0079 10.7312C14.37 10.7522 14.8636 10.6846 15.6146 10.4033C15.9819 10.2658 16.4588 9.76368 16.99 8.63741C17.4428 7.6772 17.8204 6.52443 18.2087 5.33882C18.2521 5.20614 18.2957 5.07304 18.3396 4.93976C18.7474 3.70016 19.2066 2.33969 19.8086 1.44518C20.1117 0.994834 20.5699 0.476764 21.2499 0.262489C22.0089 0.0233216 22.7255 0.253474 23.3025 0.665007C24.735 1.6868 27.1331 3.15198 29.867 3.63469C32.5288 4.10467 35.5388 3.65635 38.4064 0.792825C38.8753 0.324529 39.6351 0.325069 40.1034 0.794031C40.5717 1.26299 40.5712 2.02279 40.1022 2.49109C36.6119 5.97648 32.781 6.58632 29.4497 5.99814C26.1977 5.42396 23.4553 3.72088 21.9189 2.62609C21.887 2.66327 21.8471 2.71474 21.7997 2.78509C21.4214 3.34724 21.0594 4.35225 20.6194 5.68976C20.5759 5.82192 20.5319 5.95665 20.4871 6.09337C20.108 7.25275 19.6819 8.55596 19.1607 9.66114Z" fill="url(#paint0_linear_25_1886)"/>
<defs>
<linearGradient id="paint0_linear_25_1886" x1="0" y1="7.08133" x2="40.4543" y2="7.08133" gradientUnits="userSpaceOnUse">
<stop stop-color="#00C6FB"/>
<stop offset="1" stop-color="#005BEA"/>
</linearGradient>
</defs>
</svg>
