<svg width="147" height="31" viewBox="0 0 147 31" fill="none" xmlns="http://www.w3.org/2000/svg">
<path d="M145.809 4.5231L133.465 28.5932C132.934 29.6299 131.867 30.2818 130.702 30.2818H98.3181C95.9411 30.2818 94.4451 27.7204 95.6131 25.65L109.191 1.5799C109.741 0.603801 110.775 0 111.896 0H143.045C145.368 0 146.869 2.4563 145.809 4.5231Z" fill="url(#paint0_linear_57_1891)"/>
<path d="M112.146 22.0576C110.988 22.0576 109.945 21.8221 109.017 21.351C108.102 20.8665 107.375 20.1263 106.836 19.1304C106.298 18.1344 106.029 16.8761 106.029 15.3552C106.029 14.615 106.157 13.8546 106.412 13.074C106.668 12.2934 107.038 11.5397 107.523 10.813C108.021 10.0727 108.633 9.41329 109.36 8.83459C110.1 8.24239 110.955 7.77809 111.924 7.44159C112.893 7.09169 113.969 6.91669 115.154 6.91669C115.881 6.91669 116.533 7.01759 117.112 7.21949C117.704 7.42139 118.169 7.72419 118.505 8.12799C118.841 8.51829 119.01 9.00949 119.01 9.60169C119.01 10.1804 118.875 10.6649 118.606 11.0552C118.35 11.4455 118.007 11.7416 117.576 11.9435C117.159 12.1319 116.702 12.2261 116.204 12.2261C115.611 12.2261 115.033 12.0781 114.467 11.782C113.902 11.4859 113.445 11.0485 113.095 10.4698C112.624 10.6986 112.179 11.0889 111.762 11.6407C111.359 12.179 111.036 12.8116 110.793 13.5383C110.551 14.2651 110.43 15.0188 110.43 15.7994C110.43 16.3512 110.497 16.8693 110.632 17.3538C110.78 17.8249 111.002 18.2085 111.298 18.5045C111.594 18.8006 111.971 18.9487 112.428 18.9487C112.805 18.9487 113.169 18.8074 113.519 18.5247C113.869 18.2286 114.158 17.8383 114.387 17.3538C114.615 16.8693 114.73 16.3243 114.73 15.7186C115.551 15.7186 116.237 15.759 116.789 15.8397C117.354 15.907 117.785 16.0618 118.081 16.3041C118.377 16.5463 118.525 16.9232 118.525 17.4346C118.525 17.946 118.377 18.4709 118.081 19.0092C117.785 19.5476 117.354 20.0523 116.789 20.5233C116.237 20.9809 115.564 21.351 114.77 21.6337C113.99 21.9163 113.115 22.0576 112.146 22.0576ZM121.505 22.0576C120.738 22.0576 120.193 21.8625 119.87 21.4722C119.561 21.0819 119.406 20.6445 119.406 20.16C119.406 19.3659 119.796 18.4844 120.577 17.5153C121.357 16.5329 122.575 15.436 124.231 14.2247L122.434 10.8332C122.178 10.3486 121.862 9.87089 121.485 9.39979C121.108 8.91529 120.604 8.56539 119.971 8.34999C120.482 7.82519 121.034 7.45509 121.626 7.23969C122.219 7.02439 122.75 6.91669 123.221 6.91669C123.84 6.91669 124.359 7.01759 124.776 7.21949C125.193 7.42139 125.59 7.77809 125.967 8.28949C126.357 8.80089 126.795 9.52089 127.279 10.4496L128.107 12.0242C128.537 11.5397 128.881 11.0552 129.136 10.5707C129.392 10.0727 129.52 9.57479 129.52 9.07679C129.52 8.84799 129.5 8.64609 129.459 8.47119C129.432 8.28279 129.385 8.11449 129.318 7.96649C130.354 7.26659 131.357 6.91669 132.326 6.91669C133.08 6.91669 133.618 7.11189 133.941 7.50219C134.264 7.89249 134.426 8.32989 134.426 8.81439C134.426 9.63529 134.042 10.5438 133.275 11.5397C132.521 12.5222 131.303 13.6325 129.621 14.8707L131.377 18.1412C131.633 18.6257 131.949 19.1102 132.326 19.5947C132.703 20.0657 133.208 20.4089 133.84 20.6243C133.342 21.1492 132.79 21.5193 132.185 21.7346C131.592 21.9499 131.061 22.0576 130.59 22.0576C129.984 22.0576 129.466 21.9567 129.035 21.7548C128.618 21.5529 128.221 21.1963 127.844 20.6848C127.467 20.16 127.03 19.4399 126.532 18.5247L125.684 16.9501C125.267 17.448 124.93 17.946 124.675 18.444C124.433 18.9285 124.311 19.413 124.311 19.8975C124.311 20.3282 124.372 20.6983 124.493 21.0078C123.47 21.7077 122.474 22.0576 121.505 22.0576Z" fill="white" fill-opacity="0.95"/>
<path d="M3.73206 25.676C2.57076 25.676 1.74736 25.3467 1.26206 24.688C0.794058 24.012 0.560059 22.998 0.560059 21.646C0.560059 20.7793 0.698759 19.4793 0.976059 17.746C1.27076 15.9953 1.67806 13.6813 2.19806 10.804L0.820059 8.02202C1.63476 7.50202 2.50136 7.06002 3.42006 6.69602C4.33876 6.31472 5.25736 6.12402 6.17606 6.12402C6.99076 6.12402 7.52806 6.36672 7.78806 6.85202C8.04806 7.33732 8.17806 7.90932 8.17806 8.56802C8.17806 8.86272 8.11736 9.34802 7.99606 10.024C7.89206 10.6827 7.75336 11.4453 7.58006 12.312C7.42406 13.1787 7.25936 14.0627 7.08606 14.964H12.9101C13.0141 14.3573 13.1268 13.7073 13.2481 13.014C13.3868 12.3207 13.5254 11.584 13.6641 10.804L12.2861 8.02202C13.1008 7.50202 13.9674 7.06002 14.8861 6.69602C15.8048 6.31472 16.7234 6.12402 17.6421 6.12402C18.4568 6.12402 18.9941 6.36672 19.2541 6.85202C19.5141 7.33732 19.6441 7.90932 19.6441 8.56802C19.6441 8.84532 19.5921 9.29602 19.4881 9.92002C19.4014 10.5267 19.2801 11.2373 19.1241 12.052C18.9681 12.8493 18.8034 13.69 18.6301 14.574C18.4741 15.4407 18.3181 16.29 18.1621 17.122C18.0061 17.9367 17.8761 18.6647 17.7721 19.306C17.6854 19.93 17.6421 20.4067 17.6421 20.736C17.6421 21.62 17.7028 22.3653 17.8241 22.972C17.9628 23.5787 18.1621 24.09 18.4221 24.506C17.3821 25.286 16.3074 25.676 15.1981 25.676C14.0368 25.676 13.2134 25.3467 12.7281 24.688C12.2601 24.012 12.0261 22.998 12.0261 21.646C12.0261 21.2473 12.0521 20.7533 12.1041 20.164C12.1734 19.5573 12.2688 18.8553 12.3901 18.058H6.51406C6.41006 18.6473 6.32336 19.1847 6.25406 19.67C6.20206 20.138 6.17606 20.4933 6.17606 20.736C6.17606 21.62 6.23676 22.3653 6.35806 22.972C6.49676 23.5787 6.69606 24.09 6.95606 24.506C5.91606 25.286 4.84136 25.676 3.73206 25.676ZM22.5878 25.676C21.7385 25.676 21.1405 25.4247 20.7938 24.922C20.4471 24.402 20.2738 23.7173 20.2738 22.868C20.2738 22.2267 20.3951 21.5073 20.6378 20.71C20.8978 19.9127 21.2271 19.0807 21.6258 18.214C22.0245 17.33 22.4491 16.446 22.8998 15.562C23.3505 14.678 23.7838 13.8287 24.1998 13.014C24.6331 12.1993 24.9971 11.4627 25.2918 10.804C25.2051 10.3707 25.1011 9.91132 24.9798 9.42602C24.8585 8.94072 24.7458 8.48132 24.6418 8.04802C25.4218 7.51072 26.2365 7.06002 27.0858 6.69602C27.9351 6.33202 28.9578 6.15002 30.1538 6.15002C30.6045 6.15002 30.9858 6.21072 31.2978 6.33202C31.6098 6.45332 31.8525 6.60932 32.0258 6.80002C32.4765 6.60932 32.9185 6.45332 33.3518 6.33202C33.7851 6.21072 34.2445 6.15002 34.7298 6.15002C35.3885 6.15002 35.8738 6.34072 36.1858 6.72202C36.4978 7.08602 36.6971 7.56272 36.7838 8.15202C36.8878 8.72402 36.9398 9.33072 36.9398 9.97202C36.9398 10.96 36.9051 11.9567 36.8358 12.962C36.7665 13.9673 36.7318 15.0333 36.7318 16.16C36.7318 17.356 36.7925 18.5173 36.9138 19.644C37.0351 20.7707 37.2778 21.7673 37.6418 22.634C38.0058 23.5007 38.5431 24.142 39.2538 24.558C38.6645 24.922 38.0925 25.1993 37.5378 25.39C37.0005 25.5807 36.3591 25.676 35.6138 25.676C34.7645 25.676 34.0711 25.442 33.5338 24.974C32.9965 24.506 32.5718 23.8733 32.2598 23.076C31.9651 22.2787 31.7485 21.3947 31.6098 20.424H26.3058C26.1498 20.9613 26.0285 21.4553 25.9418 21.906C25.8551 22.3393 25.8118 22.7293 25.8118 23.076C25.8118 23.6307 25.8811 24.09 26.0198 24.454C25.3785 24.8527 24.7805 25.156 24.2258 25.364C23.6711 25.572 23.1251 25.676 22.5878 25.676ZM27.3978 17.694H31.4278C31.4278 16.7233 31.4365 15.848 31.4538 15.068C31.4885 14.288 31.5231 13.5427 31.5578 12.832C31.6098 12.104 31.6618 11.35 31.7138 10.57H30.8818C30.2925 11.7313 29.6858 12.936 29.0618 14.184C28.4378 15.432 27.8831 16.602 27.3978 17.694ZM44.1032 25.676C42.9419 25.676 42.1185 25.3467 41.6332 24.688C41.1652 24.012 40.9312 22.998 40.9312 21.646C40.9312 20.7793 41.0699 19.4793 41.3472 17.746C41.6419 15.9953 42.0492 13.6813 42.5692 10.804L41.1912 8.02202C42.0059 7.50202 42.8725 7.06002 43.7912 6.69602C44.7099 6.33202 45.6285 6.15002 46.5472 6.15002C47.0152 6.15002 47.5265 6.21932 48.0812 6.35802C48.6532 6.49672 49.1039 6.68732 49.4332 6.93002C50.7332 6.41002 51.9032 6.15002 52.9432 6.15002C54.0699 6.15002 55.0145 6.41002 55.7772 6.93002C56.5572 7.45002 57.1465 8.12602 57.5452 8.95802C57.9439 9.79002 58.1432 10.6827 58.1432 11.636C58.1432 12.7107 57.8659 13.7767 57.3112 14.834C56.7565 15.8913 55.9072 16.7667 54.7632 17.46C55.1445 18.5347 55.5605 19.54 56.0112 20.476C56.4792 21.3947 56.9645 22.1833 57.4672 22.842C57.9699 23.4833 58.4639 23.9427 58.9492 24.22C58.7065 24.48 58.3685 24.7227 57.9352 24.948C57.5019 25.156 57.0425 25.3207 56.5572 25.442C56.0719 25.5807 55.6299 25.65 55.2312 25.65C54.4859 25.65 53.8272 25.5287 53.2552 25.286C52.6832 25.0607 52.1719 24.636 51.7212 24.012C51.2879 23.388 50.8719 22.5127 50.4732 21.386L49.5632 18.76C48.6619 18.76 47.7519 18.6213 46.8332 18.344C46.6425 19.4533 46.5472 20.2507 46.5472 20.736C46.5472 21.62 46.6079 22.3653 46.7292 22.972C46.8679 23.5787 47.0672 24.09 47.3272 24.506C46.2872 25.286 45.2125 25.676 44.1032 25.676ZM47.9772 15.51C48.9652 15.51 49.7799 15.3367 50.4212 14.99C51.0799 14.626 51.5652 14.1753 51.8772 13.638C52.2065 13.0833 52.3712 12.5373 52.3712 12C52.3712 11.3413 52.1545 10.7607 51.7212 10.258C51.2879 9.73802 50.6379 9.47802 49.7712 9.47802C49.3205 9.47802 48.8699 9.53872 48.4192 9.66002C48.3499 10.128 48.2632 10.6913 48.1592 11.35C48.0552 11.9913 47.9425 12.676 47.8212 13.404C47.6999 14.1147 47.5525 14.808 47.3792 15.484C47.4659 15.5013 47.5525 15.51 47.6392 15.51C47.7432 15.51 47.8559 15.51 47.9772 15.51ZM65.7976 25.65C64.6882 25.65 63.6916 25.468 62.8076 25.104C61.9409 24.74 61.2562 24.2027 60.7536 23.492C60.2509 22.764 59.9996 21.854 59.9996 20.762C59.9996 20.1033 60.0776 19.2453 60.2336 18.188C60.4069 17.1307 60.6149 15.9693 60.8576 14.704C61.1002 13.4213 61.3342 12.1213 61.5596 10.804L60.1816 8.02202C61.1522 7.46732 62.0796 7.01672 62.9636 6.67002C63.8649 6.32332 64.8096 6.15002 65.7976 6.15002C66.2136 6.15002 66.5602 6.21932 66.8376 6.35802C67.1149 6.49672 67.3402 6.68732 67.5136 6.93002C68.2589 6.67002 68.9609 6.47932 69.6196 6.35802C70.2782 6.23672 70.9022 6.17602 71.4916 6.17602C73.0689 6.17602 74.3862 6.53132 75.4436 7.24202C76.5009 7.95272 77.2896 8.88872 77.8096 10.05C78.3469 11.2113 78.6156 12.4767 78.6156 13.846C78.6156 14.938 78.4422 16.0387 78.0956 17.148C77.7662 18.2573 77.2549 19.3233 76.5616 20.346C75.8856 21.3687 75.0362 22.2787 74.0136 23.076C72.9909 23.8733 71.7949 24.506 70.4256 24.974C69.0562 25.4247 67.5136 25.65 65.7976 25.65ZM66.7336 21.854C68.0509 21.854 69.1516 21.5247 70.0356 20.866C70.9369 20.2073 71.6129 19.3407 72.0636 18.266C72.5142 17.1913 72.7396 16.03 72.7396 14.782C72.7396 13.222 72.3842 11.9567 71.6736 10.986C70.9629 9.99802 69.9056 9.50402 68.5016 9.50402C68.3456 9.50402 68.1809 9.51272 68.0076 9.53002C67.8342 9.54732 67.6522 9.57332 67.4616 9.60802C67.3576 10.3013 67.2189 11.168 67.0456 12.208C66.8896 13.248 66.7076 14.3573 66.4996 15.536C66.3089 16.6973 66.1182 17.8327 65.9276 18.942C65.7542 20.034 65.6156 20.97 65.5116 21.75C65.7196 21.7847 65.9276 21.8107 66.1356 21.828C66.3436 21.8453 66.5429 21.854 66.7336 21.854ZM82.6291 29.602C82.2131 29.602 81.7624 29.5587 81.2771 29.472C80.7918 29.3853 80.3324 29.2293 79.8991 29.004C79.4658 28.7787 79.1104 28.4667 78.8331 28.068C78.5558 27.6693 78.4171 27.1493 78.4171 26.508C78.4171 26.0573 78.5211 25.546 78.7291 24.974C78.9371 24.3847 79.2578 23.7953 79.6911 23.206C80.0898 23.778 80.6098 24.2113 81.2511 24.506C81.8924 24.8007 82.5598 24.948 83.2531 24.948C84.0501 24.948 84.7961 24.7487 85.4891 24.35C86.2001 23.934 86.7021 23.31 86.9971 22.478C86.4601 22.5993 86.0351 22.686 85.7231 22.738C85.4111 22.79 85.0561 22.816 84.6571 22.816C83.8081 22.816 83.1321 22.634 82.6291 22.27C82.1438 21.8887 81.8664 21.2387 81.7971 20.32C81.7451 19.488 81.7018 18.5867 81.6671 17.616C81.6324 16.6453 81.5631 15.6573 81.4591 14.652C81.3724 13.6467 81.2164 12.676 80.9911 11.74C80.7658 10.804 80.4451 9.96332 80.0291 9.21802C79.6131 8.45532 79.0584 7.84002 78.3651 7.37202C79.0584 6.95602 79.6651 6.65272 80.1851 6.46202C80.7224 6.25402 81.2858 6.15002 81.8751 6.15002C82.8284 6.15002 83.6171 6.37532 84.2411 6.82602C84.8821 7.25932 85.3941 7.84872 85.7751 8.59402C86.1741 9.33932 86.4681 10.18 86.6591 11.116C86.8671 12.052 87.0141 13.0227 87.1011 14.028C87.1881 15.0333 87.2401 16.0127 87.2571 16.966C87.2921 17.9193 87.3261 18.786 87.3611 19.566H87.7251C88.0371 18.8207 88.3491 17.98 88.6611 17.044C88.9901 16.108 89.2851 15.1547 89.5451 14.184C89.8051 13.196 90.0131 12.26 90.1691 11.376C90.3421 10.4747 90.4291 9.70332 90.4291 9.06202C90.4291 8.68072 90.3861 8.36002 90.2991 8.10002C90.2301 7.82272 90.1431 7.58002 90.0391 7.37202C91.3391 6.55732 92.5441 6.15002 93.6531 6.15002C94.6061 6.15002 95.2911 6.43602 95.7071 7.00802C96.1401 7.56272 96.3571 8.28202 96.3571 9.16602C96.3571 9.68602 96.2531 10.3967 96.0451 11.298C95.8371 12.182 95.5511 13.1873 95.1871 14.314C94.8231 15.4407 94.3981 16.6107 93.9131 17.824C93.4451 19.02 92.9511 20.1813 92.4311 21.308C91.5641 23.1453 90.6801 24.6793 89.7791 25.91C88.8781 27.1407 87.8551 28.0593 86.7111 28.666C85.5841 29.29 84.2241 29.602 82.6291 29.602Z" fill="url(#paint1_linear_57_1891)"/>
<defs>
<linearGradient id="paint0_linear_57_1891" x1="93.0001" y1="15.1409" x2="148.128" y2="15.1409" gradientUnits="userSpaceOnUse">
<stop stop-color="#A420EB"/>
<stop offset="0.56117" stop-color="#7918F2"/>
<stop offset="1" stop-color="#4801FF"/>
</linearGradient>
<linearGradient id="paint1_linear_57_1891" x1="-0.999941" y1="15" x2="97.0001" y2="15" gradientUnits="userSpaceOnUse">
<stop stop-color="#A420EB"/>
<stop offset="0.56117" stop-color="#7918F2"/>
<stop offset="1" stop-color="#4801FF"/>
</linearGradient>
</defs>
</svg>
