<svg width="35" height="36" viewBox="0 0 35 36" fill="none" xmlns="http://www.w3.org/2000/svg">
<path opacity="0.5" d="M0.0078125 18.1432C0.0078125 8.53339 7.84787 0.743118 17.4576 0.743118C27.0674 0.743118 34.9075 8.53339 34.9075 18.1432C34.9075 27.7529 27.0674 35.5432 17.4576 35.5432C7.84787 35.5432 0.0078125 27.7529 0.0078125 18.1432Z" fill="#0B1739"/>
<path opacity="0.2" d="M0.0078125 18.1432C0.0078125 8.53339 7.84787 0.743118 17.4576 0.743118C27.0674 0.743118 34.9075 8.53339 34.9075 18.1432C34.9075 27.7529 27.0674 35.5432 17.4576 35.5432C7.84787 35.5432 0.0078125 27.7529 0.0078125 18.1432Z" fill="#CB3CFF"/>
<path opacity="0.4" d="M7.95508 18.1433C7.95508 12.9098 12.2248 8.66723 17.4582 8.66723C22.6917 8.66723 26.9614 12.9098 26.9614 18.1433C26.9614 23.3767 22.6917 27.6193 17.4582 27.6193C12.2248 27.6193 7.95508 23.3767 7.95508 18.1433Z" fill="#CB3CFF"/>
<rect x="13.2095" y="13.9067" width="8.49666" height="8.47242" rx="4.23621" fill="#9A91FB"/>
</svg>
