<svg width="24" height="25" viewBox="0 0 24 25" fill="none" xmlns="http://www.w3.org/2000/svg">
<path d="M14.079 2.47729C14.2378 2.4773 14.3925 2.5277 14.5208 2.62124C14.6491 2.71478 14.7445 2.84662 14.793 2.99779L15.618 5.56129C15.9645 5.73079 16.296 5.92129 16.6125 6.13579L19.2465 5.5688C19.4018 5.53564 19.5637 5.55263 19.7087 5.61733C19.8537 5.68202 19.9745 5.79108 20.0535 5.9288L22.1325 9.52729C22.2119 9.66493 22.2456 9.82422 22.2286 9.9822C22.2116 10.1402 22.1449 10.2887 22.038 10.4063L20.2305 12.4013C20.2569 12.7838 20.2569 13.1677 20.2305 13.5503L22.038 15.5483C22.1449 15.6659 22.2116 15.8144 22.2286 15.9724C22.2456 16.1304 22.2119 16.2897 22.1325 16.4273L20.0535 20.0273C19.9742 20.1647 19.8534 20.2735 19.7084 20.3379C19.5634 20.4023 19.4017 20.4191 19.2465 20.3858L16.6125 19.8188C16.2975 20.0318 15.9645 20.2238 15.6195 20.3933L14.793 22.9568C14.7445 23.108 14.6491 23.2398 14.5208 23.3334C14.3925 23.4269 14.2378 23.4773 14.079 23.4773H9.92104C9.76225 23.4773 9.60757 23.4269 9.47925 23.3334C9.35094 23.2398 9.25563 23.108 9.20704 22.9568L8.38354 20.3948C8.03798 20.2258 7.70467 20.0328 7.38604 19.8173L4.75354 20.3858C4.59824 20.419 4.43642 20.402 4.29139 20.3373C4.14637 20.2726 4.02562 20.1635 3.94654 20.0258L1.86754 16.4273C1.78815 16.2897 1.75453 16.1304 1.77151 15.9724C1.78849 15.8144 1.85521 15.6659 1.96204 15.5483L3.76954 13.5503C3.74335 13.1687 3.74335 12.7858 3.76954 12.4043L1.96204 10.4063C1.85521 10.2887 1.78849 10.1402 1.77151 9.9822C1.75453 9.82422 1.78815 9.66493 1.86754 9.52729L3.94654 5.92729C4.02584 5.78986 4.14668 5.68111 4.29169 5.61669C4.4367 5.55227 4.5984 5.5355 4.75354 5.5688L7.38604 6.1373C7.70404 5.92279 8.03704 5.7293 8.38354 5.5598L9.20854 2.99779C9.25697 2.84711 9.35183 2.71561 9.47954 2.62212C9.60725 2.52863 9.76127 2.47793 9.91954 2.47729H14.0775H14.079ZM13.53 3.97729H10.47L9.61804 6.62779L9.04354 6.90829C8.76111 7.04649 8.48848 7.20386 8.22754 7.3793L7.69654 7.73929L4.97254 7.1513L3.44254 9.80329L5.31004 11.8703L5.26504 12.5063C5.24348 12.8199 5.24348 13.1347 5.26504 13.4483L5.31004 14.0843L3.43954 16.1513L4.97104 18.8033L7.69504 18.2168L8.22604 18.5753C8.48698 18.7507 8.75961 18.9081 9.04204 19.0463L9.61654 19.3268L10.47 21.9773H13.533L14.388 19.3253L14.961 19.0463C15.2432 18.9084 15.5153 18.751 15.7755 18.5753L16.305 18.2168L19.0305 18.8033L20.5605 16.1513L18.6915 14.0843L18.7365 13.4483C18.7582 13.1342 18.7582 12.8189 18.7365 12.5048L18.6915 11.8688L20.562 9.80329L19.0305 7.1513L16.305 7.73629L15.7755 7.3793C15.5153 7.20354 15.2432 7.04616 14.961 6.90829L14.388 6.62929L13.5315 3.97729H13.53ZM12 8.47729C13.1935 8.47729 14.3381 8.9514 15.182 9.79531C16.0259 10.6392 16.5 11.7838 16.5 12.9773C16.5 14.1708 16.0259 15.3154 15.182 16.1593C14.3381 17.0032 13.1935 17.4773 12 17.4773C10.8066 17.4773 9.66197 17.0032 8.81806 16.1593C7.97415 15.3154 7.50004 14.1708 7.50004 12.9773C7.50004 11.7838 7.97415 10.6392 8.81806 9.79531C9.66197 8.9514 10.8066 8.47729 12 8.47729ZM12 9.97729C11.2044 9.97729 10.4413 10.2934 9.87872 10.856C9.31611 11.4186 9.00004 12.1816 9.00004 12.9773C9.00004 13.7729 9.31611 14.536 9.87872 15.0986C10.4413 15.6612 11.2044 15.9773 12 15.9773C12.7957 15.9773 13.5588 15.6612 14.1214 15.0986C14.684 14.536 15 13.7729 15 12.9773C15 12.1816 14.684 11.4186 14.1214 10.856C13.5588 10.2934 12.7957 9.97729 12 9.97729Z" fill="white" fill-opacity="1"/>
</svg>
