<svg width="25" height="24" viewBox="0 0 25 24" fill="none" xmlns="http://www.w3.org/2000/svg">
<path d="M15.4091 6.5L10.4091 10M15.4091 17.5L10.4091 14M10.4091 12C10.4091 12.663 10.1457 13.2989 9.67682 13.7678C9.20798 14.2366 8.5721 14.5 7.90906 14.5C7.24602 14.5 6.61013 14.2366 6.14129 13.7678C5.67245 13.2989 5.40906 12.663 5.40906 12C5.40906 11.337 5.67245 10.7011 6.14129 10.2322C6.61013 9.76339 7.24602 9.5 7.90906 9.5C8.5721 9.5 9.20798 9.76339 9.67682 10.2322C10.1457 10.7011 10.4091 11.337 10.4091 12ZM20.4091 18.5C20.4091 19.163 20.1457 19.7989 19.6768 20.2678C19.208 20.7366 18.5721 21 17.9091 21C17.246 21 16.6101 20.7366 16.1413 20.2678C15.6724 19.7989 15.4091 19.163 15.4091 18.5C15.4091 17.837 15.6724 17.2011 16.1413 16.7322C16.6101 16.2634 17.246 16 17.9091 16C18.5721 16 19.208 16.2634 19.6768 16.7322C20.1457 17.2011 20.4091 17.837 20.4091 18.5ZM20.4091 5.5C20.4091 6.16304 20.1457 6.79893 19.6768 7.26777C19.208 7.73661 18.5721 8 17.9091 8C17.246 8 16.6101 7.73661 16.1413 7.26777C15.6724 6.79893 15.4091 6.16304 15.4091 5.5C15.4091 4.83696 15.6724 4.20107 16.1413 3.73223C16.6101 3.26339 17.246 3 17.9091 3C18.5721 3 19.208 3.26339 19.6768 3.73223C20.1457 4.20107 20.4091 4.83696 20.4091 5.5Z" stroke="white" stroke-width="1.5" stroke-linecap="round" stroke-linejoin="round"/>
</svg>
