<svg width="27" height="26" viewBox="0 0 27 26" fill="none" xmlns="http://www.w3.org/2000/svg">
<g clip-path="url(#clip0_1_697)">
<path d="M9.72218 -0.000481803C9.49051 0.0435806 9.28186 0.1681 9.1331 0.351081C8.98434 0.534063 8.90503 0.763731 8.90918 0.999518V1.99952H5.31518C4.51518 1.99952 3.90918 2.60552 3.90918 3.40552V24.4995C3.90918 25.3995 4.51518 25.9995 5.31518 25.9995H22.4092C23.2092 25.9995 23.8152 25.3935 23.8152 24.5935V3.40552C23.9152 2.60552 23.3032 1.99952 22.5032 1.99952H18.9092V0.999518C18.9092 0.734302 18.8038 0.479948 18.6163 0.292411C18.4287 0.104875 18.1744 -0.000481803 17.9092 -0.000481803H9.90918C9.87786 -0.00195528 9.8465 -0.00195528 9.81518 -0.000481803C9.78386 -0.00195528 9.75349 -0.00195528 9.72218 -0.000481803ZM10.9092 1.99952H16.9092V3.99952H10.9092V1.99952ZM5.90918 3.99952H8.90918V4.99952C8.90918 5.26473 9.01454 5.51909 9.20207 5.70662C9.38961 5.89416 9.64396 5.99952 9.90918 5.99952H17.9092C18.1744 5.99952 18.4287 5.89416 18.6163 5.70662C18.8038 5.51909 18.9092 5.26473 18.9092 4.99952V3.99952H21.9092V23.9995H5.90918V3.99952ZM7.90918 8.99952V12.9995H11.9092V8.99952H7.90918ZM8.90918 9.99952H10.9092V11.9995H8.90918V9.99952ZM13.9092 9.99952V11.9995H19.9092V9.99952H13.9092ZM7.90918 14.9995V18.9995H11.9092V14.9995H7.90918ZM13.9092 15.9995V17.9995H19.9092V15.9995H13.9092Z" fill="white" fill-opacity="0.87"/>
</g>
<defs>
<clipPath id="clip0_1_697">
<rect width="26" height="26" fill="white" transform="translate(0.909119)"/>
</clipPath>
</defs>
</svg>
