<svg width="37" height="37" viewBox="0 0 37 37" fill="none" xmlns="http://www.w3.org/2000/svg">
<path d="M24.3489 31.6608V28.7362C24.3489 27.1849 23.7327 25.6971 22.6357 24.6002C21.5388 23.5032 20.051 22.887 18.4997 22.887H9.72591C8.17461 22.887 6.68684 23.5032 5.5899 24.6002C4.49296 25.6971 3.87671 27.1849 3.87671 28.7362V31.6608" stroke="#E9ECF5" stroke-width="2.9246" stroke-linecap="round" stroke-linejoin="round"/>
<path d="M14.1131 17.0377C17.3435 17.0377 19.9623 14.4189 19.9623 11.1885C19.9623 7.95807 17.3435 5.33929 14.1131 5.33929C10.8827 5.33929 8.26392 7.95807 8.26392 11.1885C8.26392 14.4189 10.8827 17.0377 14.1131 17.0377Z" stroke="#E9ECF5" stroke-width="2.9246" stroke-linecap="round" stroke-linejoin="round"/>
<path d="M33.1227 31.6607V28.7361C33.1217 27.4401 32.6904 26.1812 31.8964 25.1569C31.1023 24.1326 29.9906 23.401 28.7358 23.077M24.3489 5.52942C25.6071 5.85157 26.7222 6.5833 27.5186 7.60927C28.315 8.63523 28.7473 9.89706 28.7473 11.1958C28.7473 12.4946 28.315 13.7564 27.5186 14.7824C26.7222 15.8084 25.6071 16.5401 24.3489 16.8623" stroke="#E9ECF5" stroke-width="2.9246" stroke-linecap="round" stroke-linejoin="round"/>
</svg>
