<svg width="181" height="84" viewBox="0 0 181 84" fill="none" xmlns="http://www.w3.org/2000/svg">
<path d="M162.809 31.5231L150.465 55.5932C149.934 56.6299 148.867 57.2818 147.702 57.2818H115.318C112.941 57.2818 111.445 54.7204 112.613 52.65L126.191 28.5799C126.741 27.6038 127.775 27 128.896 27H160.045C162.368 27 163.869 29.4563 162.809 31.5231Z" fill="url(#paint0_linear_761_3102)"/>
<path d="M129.146 49.0576C127.988 49.0576 126.945 48.8221 126.017 48.351C125.102 47.8665 124.375 47.1263 123.836 46.1304C123.298 45.1344 123.029 43.8761 123.029 42.3552C123.029 41.615 123.157 40.8546 123.412 40.074C123.668 39.2934 124.038 38.5397 124.523 37.813C125.021 37.0727 125.633 36.4133 126.36 35.8346C127.1 35.2424 127.955 34.7781 128.924 34.4416C129.893 34.0917 130.969 33.9167 132.154 33.9167C132.881 33.9167 133.533 34.0176 134.112 34.2195C134.704 34.4214 135.169 34.7242 135.505 35.128C135.841 35.5183 136.01 36.0095 136.01 36.6017C136.01 37.1804 135.875 37.6649 135.606 38.0552C135.35 38.4455 135.007 38.7416 134.576 38.9435C134.159 39.1319 133.702 39.2261 133.204 39.2261C132.611 39.2261 132.033 39.0781 131.467 38.782C130.902 38.4859 130.445 38.0485 130.095 37.4698C129.624 37.6986 129.179 38.0889 128.762 38.6407C128.359 39.179 128.036 39.8116 127.793 40.5383C127.551 41.2651 127.43 42.0188 127.43 42.7994C127.43 43.3512 127.497 43.8693 127.632 44.3538C127.78 44.8249 128.002 45.2085 128.298 45.5045C128.594 45.8006 128.971 45.9487 129.428 45.9487C129.805 45.9487 130.169 45.8074 130.519 45.5247C130.869 45.2286 131.158 44.8383 131.387 44.3538C131.615 43.8693 131.73 43.3243 131.73 42.7186C132.551 42.7186 133.237 42.759 133.789 42.8397C134.354 42.907 134.785 43.0618 135.081 43.3041C135.377 43.5463 135.525 43.9232 135.525 44.4346C135.525 44.946 135.377 45.4709 135.081 46.0092C134.785 46.5476 134.354 47.0523 133.789 47.5233C133.237 47.9809 132.564 48.351 131.77 48.6337C130.99 48.9163 130.115 49.0576 129.146 49.0576ZM138.505 49.0576C137.738 49.0576 137.193 48.8625 136.87 48.4722C136.561 48.0819 136.406 47.6445 136.406 47.16C136.406 46.3659 136.796 45.4844 137.577 44.5153C138.357 43.5329 139.575 42.436 141.231 41.2247L139.434 37.8332C139.178 37.3486 138.862 36.8709 138.485 36.3998C138.108 35.9153 137.604 35.5654 136.971 35.35C137.482 34.8252 138.034 34.4551 138.626 34.2397C139.219 34.0244 139.75 33.9167 140.221 33.9167C140.84 33.9167 141.359 34.0176 141.776 34.2195C142.193 34.4214 142.59 34.7781 142.967 35.2895C143.357 35.8009 143.795 36.5209 144.279 37.4496L145.107 39.0242C145.537 38.5397 145.881 38.0552 146.136 37.5707C146.392 37.0727 146.52 36.5748 146.52 36.0768C146.52 35.848 146.5 35.6461 146.459 35.4712C146.432 35.2828 146.385 35.1145 146.318 34.9665C147.354 34.2666 148.357 33.9167 149.326 33.9167C150.08 33.9167 150.618 34.1119 150.941 34.5022C151.264 34.8925 151.426 35.3299 151.426 35.8144C151.426 36.6353 151.042 37.5438 150.275 38.5397C149.521 39.5222 148.303 40.6325 146.621 41.8707L148.377 45.1412C148.633 45.6257 148.949 46.1102 149.326 46.5947C149.703 47.0657 150.208 47.4089 150.84 47.6243C150.342 48.1492 149.79 48.5193 149.185 48.7346C148.592 48.9499 148.061 49.0576 147.59 49.0576C146.984 49.0576 146.466 48.9567 146.035 48.7548C145.618 48.5529 145.221 48.1963 144.844 47.6848C144.467 47.16 144.03 46.4399 143.532 45.5247L142.684 43.9501C142.267 44.448 141.93 44.946 141.675 45.444C141.433 45.9285 141.311 46.413 141.311 46.8975C141.311 47.3282 141.372 47.6983 141.493 48.0078C140.47 48.7077 139.474 49.0576 138.505 49.0576Z" fill="white" fill-opacity="0.95"/>
<path d="M20.732 52.676C19.5707 52.676 18.7473 52.3467 18.262 51.688C17.794 51.012 17.56 49.998 17.56 48.646C17.56 47.7793 17.6987 46.4793 17.976 44.746C18.2707 42.9953 18.678 40.6813 19.198 37.804L17.82 35.022C18.6347 34.502 19.5013 34.06 20.42 33.696C21.3387 33.3147 22.2573 33.124 23.176 33.124C23.9907 33.124 24.528 33.3667 24.788 33.852C25.048 34.3373 25.178 34.9093 25.178 35.568C25.178 35.8627 25.1173 36.348 24.996 37.024C24.892 37.6827 24.7533 38.4453 24.58 39.312C24.424 40.1787 24.2593 41.0627 24.086 41.964H29.91C30.014 41.3573 30.1267 40.7073 30.248 40.014C30.3867 39.3207 30.5253 38.584 30.664 37.804L29.286 35.022C30.1007 34.502 30.9673 34.06 31.886 33.696C32.8047 33.3147 33.7233 33.124 34.642 33.124C35.4567 33.124 35.994 33.3667 36.254 33.852C36.514 34.3373 36.644 34.9093 36.644 35.568C36.644 35.8453 36.592 36.296 36.488 36.92C36.4013 37.5267 36.28 38.2373 36.124 39.052C35.968 39.8493 35.8033 40.69 35.63 41.574C35.474 42.4407 35.318 43.29 35.162 44.122C35.006 44.9367 34.876 45.6647 34.772 46.306C34.6853 46.93 34.642 47.4067 34.642 47.736C34.642 48.62 34.7027 49.3653 34.824 49.972C34.9627 50.5787 35.162 51.09 35.422 51.506C34.382 52.286 33.3073 52.676 32.198 52.676C31.0367 52.676 30.2133 52.3467 29.728 51.688C29.26 51.012 29.026 49.998 29.026 48.646C29.026 48.2473 29.052 47.7533 29.104 47.164C29.1733 46.5573 29.2687 45.8553 29.39 45.058H23.514C23.41 45.6473 23.3233 46.1847 23.254 46.67C23.202 47.138 23.176 47.4933 23.176 47.736C23.176 48.62 23.2367 49.3653 23.358 49.972C23.4967 50.5787 23.696 51.09 23.956 51.506C22.916 52.286 21.8413 52.676 20.732 52.676ZM39.5877 52.676C38.7384 52.676 38.1404 52.4247 37.7937 51.922C37.447 51.402 37.2737 50.7173 37.2737 49.868C37.2737 49.2267 37.395 48.5073 37.6377 47.71C37.8977 46.9127 38.227 46.0807 38.6257 45.214C39.0244 44.33 39.449 43.446 39.8997 42.562C40.3504 41.678 40.7837 40.8287 41.1997 40.014C41.633 39.1993 41.997 38.4627 42.2917 37.804C42.205 37.3707 42.101 36.9113 41.9797 36.426C41.8584 35.9407 41.7457 35.4813 41.6417 35.048C42.4217 34.5107 43.2364 34.06 44.0857 33.696C44.935 33.332 45.9577 33.15 47.1537 33.15C47.6044 33.15 47.9857 33.2107 48.2977 33.332C48.6097 33.4533 48.8524 33.6093 49.0257 33.8C49.4764 33.6093 49.9184 33.4533 50.3517 33.332C50.785 33.2107 51.2444 33.15 51.7297 33.15C52.3884 33.15 52.8737 33.3407 53.1857 33.722C53.4977 34.086 53.697 34.5627 53.7837 35.152C53.8877 35.724 53.9397 36.3307 53.9397 36.972C53.9397 37.96 53.905 38.9567 53.8357 39.962C53.7664 40.9673 53.7317 42.0333 53.7317 43.16C53.7317 44.356 53.7924 45.5173 53.9137 46.644C54.035 47.7707 54.2777 48.7673 54.6417 49.634C55.0057 50.5007 55.543 51.142 56.2537 51.558C55.6644 51.922 55.0924 52.1993 54.5377 52.39C54.0004 52.5807 53.359 52.676 52.6137 52.676C51.7644 52.676 51.071 52.442 50.5337 51.974C49.9964 51.506 49.5717 50.8733 49.2597 50.076C48.965 49.2787 48.7484 48.3947 48.6097 47.424H43.3057C43.1497 47.9613 43.0284 48.4553 42.9417 48.906C42.855 49.3393 42.8117 49.7293 42.8117 50.076C42.8117 50.6307 42.881 51.09 43.0197 51.454C42.3784 51.8527 41.7804 52.156 41.2257 52.364C40.671 52.572 40.125 52.676 39.5877 52.676ZM44.3977 44.694H48.4277C48.4277 43.7233 48.4364 42.848 48.4537 42.068C48.4884 41.288 48.523 40.5427 48.5577 39.832C48.6097 39.104 48.6617 38.35 48.7137 37.57H47.8817C47.2924 38.7313 46.6857 39.936 46.0617 41.184C45.4377 42.432 44.883 43.602 44.3977 44.694ZM61.1031 52.676C59.9418 52.676 59.1184 52.3467 58.6331 51.688C58.1651 51.012 57.9311 49.998 57.9311 48.646C57.9311 47.7793 58.0698 46.4793 58.3471 44.746C58.6418 42.9953 59.0491 40.6813 59.5691 37.804L58.1911 35.022C59.0058 34.502 59.8724 34.06 60.7911 33.696C61.7098 33.332 62.6284 33.15 63.5471 33.15C64.0151 33.15 64.5264 33.2193 65.0811 33.358C65.6531 33.4967 66.1038 33.6873 66.4331 33.93C67.7331 33.41 68.9031 33.15 69.9431 33.15C71.0698 33.15 72.0144 33.41 72.7771 33.93C73.5571 34.45 74.1464 35.126 74.5451 35.958C74.9438 36.79 75.1431 37.6827 75.1431 38.636C75.1431 39.7107 74.8658 40.7767 74.3111 41.834C73.7564 42.8913 72.9071 43.7667 71.7631 44.46C72.1444 45.5347 72.5604 46.54 73.0111 47.476C73.4791 48.3947 73.9644 49.1833 74.4671 49.842C74.9698 50.4833 75.4638 50.9427 75.9491 51.22C75.7064 51.48 75.3684 51.7227 74.9351 51.948C74.5018 52.156 74.0424 52.3207 73.5571 52.442C73.0718 52.5807 72.6298 52.65 72.2311 52.65C71.4858 52.65 70.8271 52.5287 70.2551 52.286C69.6831 52.0607 69.1718 51.636 68.7211 51.012C68.2878 50.388 67.8718 49.5127 67.4731 48.386L66.5631 45.76C65.6618 45.76 64.7518 45.6213 63.8331 45.344C63.6424 46.4533 63.5471 47.2507 63.5471 47.736C63.5471 48.62 63.6078 49.3653 63.7291 49.972C63.8678 50.5787 64.0671 51.09 64.3271 51.506C63.2871 52.286 62.2124 52.676 61.1031 52.676ZM64.9771 42.51C65.9651 42.51 66.7798 42.3367 67.4211 41.99C68.0798 41.626 68.5651 41.1753 68.8771 40.638C69.2064 40.0833 69.3711 39.5373 69.3711 39C69.3711 38.3413 69.1544 37.7607 68.7211 37.258C68.2878 36.738 67.6378 36.478 66.7711 36.478C66.3204 36.478 65.8698 36.5387 65.4191 36.66C65.3498 37.128 65.2631 37.6913 65.1591 38.35C65.0551 38.9913 64.9424 39.676 64.8211 40.404C64.6998 41.1147 64.5524 41.808 64.3791 42.484C64.4658 42.5013 64.5524 42.51 64.6391 42.51C64.7431 42.51 64.8558 42.51 64.9771 42.51ZM82.7975 52.65C81.6881 52.65 80.6915 52.468 79.8075 52.104C78.9408 51.74 78.2561 51.2027 77.7535 50.492C77.2508 49.764 76.9995 48.854 76.9995 47.762C76.9995 47.1033 77.0775 46.2453 77.2335 45.188C77.4068 44.1307 77.6148 42.9693 77.8575 41.704C78.1001 40.4213 78.3341 39.1213 78.5595 37.804L77.1815 35.022C78.1521 34.4673 79.0795 34.0167 79.9635 33.67C80.8648 33.3233 81.8095 33.15 82.7975 33.15C83.2135 33.15 83.5601 33.2193 83.8375 33.358C84.1148 33.4967 84.3401 33.6873 84.5135 33.93C85.2588 33.67 85.9608 33.4793 86.6195 33.358C87.2781 33.2367 87.9021 33.176 88.4915 33.176C90.0688 33.176 91.3861 33.5313 92.4435 34.242C93.5008 34.9527 94.2895 35.8887 94.8095 37.05C95.3468 38.2113 95.6155 39.4767 95.6155 40.846C95.6155 41.938 95.4421 43.0387 95.0955 44.148C94.7661 45.2573 94.2548 46.3233 93.5615 47.346C92.8855 48.3687 92.0361 49.2787 91.0135 50.076C89.9908 50.8733 88.7948 51.506 87.4255 51.974C86.0561 52.4247 84.5135 52.65 82.7975 52.65ZM83.7335 48.854C85.0508 48.854 86.1515 48.5247 87.0355 47.866C87.9368 47.2073 88.6128 46.3407 89.0635 45.266C89.5141 44.1913 89.7395 43.03 89.7395 41.782C89.7395 40.222 89.3841 38.9567 88.6735 37.986C87.9628 36.998 86.9055 36.504 85.5015 36.504C85.3455 36.504 85.1808 36.5127 85.0075 36.53C84.8341 36.5473 84.6521 36.5733 84.4615 36.608C84.3575 37.3013 84.2188 38.168 84.0455 39.208C83.8895 40.248 83.7075 41.3573 83.4995 42.536C83.3088 43.6973 83.1181 44.8327 82.9275 45.942C82.7541 47.034 82.6155 47.97 82.5115 48.75C82.7195 48.7847 82.9275 48.8107 83.1355 48.828C83.3435 48.8453 83.5428 48.854 83.7335 48.854ZM99.629 56.602C99.213 56.602 98.7623 56.5587 98.277 56.472C97.7917 56.3853 97.3323 56.2293 96.899 56.004C96.4657 55.7787 96.1103 55.4667 95.833 55.068C95.5557 54.6693 95.417 54.1493 95.417 53.508C95.417 53.0573 95.521 52.546 95.729 51.974C95.937 51.3847 96.2577 50.7953 96.691 50.206C97.0897 50.778 97.6097 51.2113 98.251 51.506C98.8923 51.8007 99.5597 51.948 100.253 51.948C101.05 51.948 101.796 51.7487 102.489 51.35C103.2 50.934 103.702 50.31 103.997 49.478C103.46 49.5993 103.035 49.686 102.723 49.738C102.411 49.79 102.056 49.816 101.657 49.816C100.808 49.816 100.132 49.634 99.629 49.27C99.1437 48.8887 98.8663 48.2387 98.797 47.32C98.745 46.488 98.7017 45.5867 98.667 44.616C98.6323 43.6453 98.563 42.6573 98.459 41.652C98.3723 40.6467 98.2163 39.676 97.991 38.74C97.7657 37.804 97.445 36.9633 97.029 36.218C96.613 35.4553 96.0583 34.84 95.365 34.372C96.0583 33.956 96.665 33.6527 97.185 33.462C97.7223 33.254 98.2857 33.15 98.875 33.15C99.8283 33.15 100.617 33.3753 101.241 33.826C101.882 34.2593 102.394 34.8487 102.775 35.594C103.174 36.3393 103.468 37.18 103.659 38.116C103.867 39.052 104.014 40.0227 104.101 41.028C104.188 42.0333 104.24 43.0127 104.257 43.966C104.292 44.9193 104.326 45.786 104.361 46.566H104.725C105.037 45.8207 105.349 44.98 105.661 44.044C105.99 43.108 106.285 42.1547 106.545 41.184C106.805 40.196 107.013 39.26 107.169 38.376C107.342 37.4747 107.429 36.7033 107.429 36.062C107.429 35.6807 107.386 35.36 107.299 35.1C107.23 34.8227 107.143 34.58 107.039 34.372C108.339 33.5573 109.544 33.15 110.653 33.15C111.606 33.15 112.291 33.436 112.707 34.008C113.14 34.5627 113.357 35.282 113.357 36.166C113.357 36.686 113.253 37.3967 113.045 38.298C112.837 39.182 112.551 40.1873 112.187 41.314C111.823 42.4407 111.398 43.6107 110.913 44.824C110.445 46.02 109.951 47.1813 109.431 48.308C108.564 50.1453 107.68 51.6793 106.779 52.91C105.878 54.1407 104.855 55.0593 103.711 55.666C102.584 56.29 101.224 56.602 99.629 56.602Z" fill="url(#paint1_linear_761_3102)"/>
<defs>
<linearGradient id="paint0_linear_761_3102" x1="110" y1="42.1409" x2="165.128" y2="42.1409" gradientUnits="userSpaceOnUse">
<stop stop-color="#A420EB"/>
<stop offset="0.56117" stop-color="#7918F2"/>
<stop offset="1" stop-color="#4801FF"/>
</linearGradient>
<linearGradient id="paint1_linear_761_3102" x1="16" y1="42" x2="114" y2="42" gradientUnits="userSpaceOnUse">
<stop stop-color="#A420EB"/>
<stop offset="0.56117" stop-color="#7918F2"/>
<stop offset="1" stop-color="#4801FF"/>
</linearGradient>
</defs>
</svg>
